<svg width="76" height="67" viewBox="0 0 76 67" fill="none" xmlns="http://www.w3.org/2000/svg">
<path fill-rule="evenodd" clip-rule="evenodd" d="M5.5185 33.3457L38 67L70.4816 33.3457C77.9014 25.6577 77.8304 13.4994 70.3204 5.89796C62.5514 -1.96599 49.8037 -1.96599 42.0345 5.89796L38 9.98176L33.9654 5.89796C26.1962 -1.96599 13.4486 -1.96599 5.67952 5.89796C-1.83023 13.4994 -1.90154 25.6577 5.5185 33.3457ZM54.0803 29.7674C49.6016 29.5471 45.8047 27.8226 42.6896 24.5937C39.5746 21.365 38.017 17.5135 38.017 13.0396C38.017 17.5135 36.4539 21.365 33.3276 24.5937C30.2014 27.8226 26.3989 29.5471 21.9203 29.7674C24.8691 29.8997 27.5741 30.7317 30.0352 32.2635C32.4962 33.7953 34.4418 35.8228 35.8718 38.3464C37.302 40.8699 38.017 43.6083 38.017 46.5616C38.017 42.0656 39.5746 38.1976 42.6896 34.9579C45.8047 31.7179 49.6016 29.9879 54.0803 29.7674Z" fill="white"/>
</svg>
