<svg width="72" height="72" viewBox="0 0 72 72" fill="none" xmlns="http://www.w3.org/2000/svg">
<path fill-rule="evenodd" clip-rule="evenodd" d="M38.3458 2.92682C38.3458 4.54325 37.0332 5.85363 35.414 5.85363C33.795 5.85363 32.4824 4.54325 32.4824 2.92682C32.4824 1.31038 33.795 0 35.414 0C37.0332 0 38.3458 1.31038 38.3458 2.92682ZM46.5536 14.0486C46.5536 15.9883 44.9786 17.5607 43.0356 17.5607C41.0928 17.5607 39.5176 15.9883 39.5176 14.0486C39.5176 12.1088 41.0928 10.5364 43.0356 10.5364C44.9786 10.5364 46.5536 12.1088 46.5536 14.0486ZM28.9636 16.39C30.259 16.39 31.309 15.3418 31.309 14.0486C31.309 12.7555 30.259 11.7071 28.9636 11.7071C27.6684 11.7071 26.6184 12.7555 26.6184 14.0486C26.6184 15.3418 27.6684 16.39 28.9636 16.39ZM50.8516 23.8193C53.2088 26.9321 54.607 30.809 54.607 35.012C54.607 45.2717 46.276 53.5889 35.9992 53.5889C25.7222 53.5889 17.3912 45.2717 17.3912 35.012C17.3912 30.8088 18.7896 26.9315 21.1472 23.8187L0.233657 7.02484C-0.548123 9.36635 0.585417 16.6249 4.33797 19.9028C6.08829 21.4318 7.69405 22.808 9.10759 24.0193C10.7244 25.405 12.0902 26.5755 13.133 27.5125V31.6101L1.63676 22.8295C2.02762 25.7564 3.62835 32.3353 7.14637 35.262C9.33999 37.0872 11.2762 38.4715 12.3936 39.2707C12.7098 39.4967 12.9606 39.6761 13.133 39.805V44.488L5.51055 38.049C5.11967 41.9515 8.20879 49.7031 12.313 52.683C14.9122 54.5702 19.3162 58.2693 23.8466 62.0747C28.31 65.8239 32.8962 69.6761 36.0002 72C39.104 69.6761 43.6898 65.8237 48.1532 62.0747C52.6835 58.2695 57.0877 54.5698 59.6869 52.6828C63.7911 49.7027 66.8803 41.9513 66.4893 38.0488L58.8669 44.4878V39.8048C59.6487 39.2194 61.9159 37.4633 64.7303 35.122C68.1667 32.263 68.9923 26.0529 69.3931 23.0386L69.4209 22.8293L58.8669 31.6097V27.5123C59.9097 26.5753 61.2751 25.405 62.8921 24.0193L62.8947 24.0171C64.3075 22.8062 65.9127 21.4307 67.6619 19.9026C71.4145 16.6245 72.5481 9.36596 71.7663 7.02458L50.8516 23.8193ZM35.9996 49.1706C43.7714 49.1706 50.0716 42.8807 50.0716 35.1218C50.0716 27.363 43.7714 21.0732 35.9996 21.0732C28.2278 21.0732 21.9274 27.363 21.9274 35.1218C21.9274 42.8807 28.2278 49.1706 35.9996 49.1706Z" fill="white"/>
</svg>
