<svg width="80" height="77" viewBox="0 0 80 77" fill="none" xmlns="http://www.w3.org/2000/svg">
<path fill-rule="evenodd" clip-rule="evenodd" d="M73.6509 38.5C73.6509 56.388 58.5849 70.889 40 70.889C21.4151 70.889 6.3492 56.388 6.3492 38.5C6.3492 20.612 21.4151 6.1111 40 6.1111C58.5849 6.1111 73.6509 20.612 73.6509 38.5ZM80 38.5C80 59.7629 62.0913 77 40 77C17.9087 77 0 59.7629 0 38.5C0 17.2371 17.9087 0 40 0C62.0913 0 80 17.2371 80 38.5ZM34.9204 19.5554L27.9002 13.3616C22.8773 15.5403 18.6438 19.1063 15.7269 23.5524L19.0473 29.9444L13.4642 27.7949C12.1518 30.9117 11.4289 34.3191 11.4289 37.8891C11.4289 39.5699 11.5891 41.2147 11.8956 42.8101L21.5871 40.9443L30.476 26.2777L28.5711 40.9443L16.3851 53.1835C17.7104 55.0248 19.2687 56.6992 21.0184 58.1671L20.9522 58.0554L27.9362 52.5555L24.3064 60.541C28.652 63.223 33.82 64.778 39.3653 64.778C46.2482 64.778 52.5498 62.3824 57.4189 58.4098L53.3331 53.1666L38.0951 51.3333L52.0633 47.0556L52.6982 39.1111L45.714 23.8332L57.1427 38.5V46.4443L64.0049 50.5725C66.1087 46.7942 67.3018 42.4758 67.3018 37.8891C67.3018 31.7574 65.1696 26.1051 61.5796 21.5816L55.8729 28.7221L58.8013 18.5745C53.7729 13.8859 46.9193 11.0003 39.3653 11.0003C39.1529 11.0003 38.9411 11.0027 38.73 11.0072V16.4998L40.6347 19.5554L37.46 31.7777L34.9204 19.5554Z" fill="#FF4656"/>
</svg>
