<svg width="80" height="40" viewBox="0 0 80 40" fill="none" xmlns="http://www.w3.org/2000/svg">
<path fill-rule="evenodd" clip-rule="evenodd" d="M62.7689 38.7501V1.24994H68.3074L70.7691 4.37489L75.0767 1.24994L80 0V6.2499L75.0767 9.99991L80 15V22.4999H77.5384L70.7691 18.7501L80 28.75V36.875L73.846 40L70.7691 36.875L68.3074 38.7501H62.7689ZM20.9229 39.3751V1.25013H37.5386V39.3751H33.2308L27.077 36.2502V39.3751H20.9229ZM41.8465 39.3751V1.25013H48.0003L50.4619 10.0001L52.3081 1.25013H58.462V39.3751H50.4619L48.0003 36.2502L46.1541 39.3751H41.8465ZM0 1.87501L9.23091 13.125L0 9.99991V30.0001C1.23078 31.0417 2.9539 33.6251 0 35.6249V39.3749H7.38473L9.84632 36.25L12.3079 39.3749H16.6157V1.87501H0Z" fill="white"/>
</svg>
