<svg width="95" height="32" viewBox="0 0 95 32" fill="none" xmlns="http://www.w3.org/2000/svg">
<path d="M79.5946 0C88.1028 0 95 6.82994 95 15.2553C95 23.6807 88.1028 30.5106 79.5946 30.5106C71.9621 30.5106 65.6258 25.0139 64.4025 17.8L61.6215 17.7979V19.2873C61.6215 19.9616 61.3512 20.6082 60.8697 21.085L50.5993 31.2553C49.5966 32.2482 47.9709 32.2482 46.9682 31.2553L36.698 21.085C36.2165 20.6082 35.946 19.9616 35.946 19.2873V17.7979L30.5975 17.8C29.3742 25.0139 23.038 30.5106 15.4054 30.5106C6.89723 30.5106 0 23.6807 0 15.2553C0 6.82994 6.89723 0 15.4054 0C23.0389 0 29.3758 5.49806 30.5979 12.7131L35.946 12.7127V2.74766C35.946 1.34332 37.0955 0.20503 38.5135 0.20503C39.0966 0.20503 39.6623 0.401373 40.1174 0.762059L47.1799 6.35703C48.1175 7.09989 49.45 7.09989 50.3878 6.35703L57.4501 0.762059C58.5573 -0.11497 60.1732 0.0626292 61.059 1.15931C61.4232 1.61006 61.6215 2.17029 61.6215 2.74766V12.7127L64.4021 12.7131C65.6242 5.49806 71.9611 0 79.5946 0ZM15.4054 7.62766C11.1513 7.62766 7.70271 11.0427 7.70271 15.2553C7.70271 19.4679 11.1513 22.883 15.4054 22.883C18.7584 22.883 21.6109 20.7616 22.669 17.8002L15.4054 17.7979C13.9874 17.7979 12.8378 16.6594 12.8378 15.2553C12.8378 13.8512 13.9874 12.7127 15.4054 12.7127L22.6699 12.7129C21.6125 9.7504 18.7593 7.62766 15.4054 7.62766ZM79.5946 7.62766C76.2407 7.62766 73.3875 9.7504 72.3301 12.7129L79.5946 12.7127C81.0126 12.7127 82.1621 13.8512 82.1621 15.2553C82.1621 16.6594 81.0126 17.7979 79.5946 17.7979L72.331 17.8002C73.3891 20.7616 76.2416 22.883 79.5946 22.883C83.8486 22.883 87.2973 19.4679 87.2973 15.2553C87.2973 11.0427 83.8486 7.62766 79.5946 7.62766Z" fill="#FF4656"/>
</svg>
