<svg width="81" height="72" viewBox="0 0 81 72" fill="none" xmlns="http://www.w3.org/2000/svg">
<path fill-rule="evenodd" clip-rule="evenodd" d="M74.25 63V72H6.75V63H74.25ZM36.6777 9.2295L32.36 17.1198C22.6897 20.4862 15.75 29.6827 15.75 40.5C15.75 47.5929 18.7337 53.989 23.5143 58.5016L14.6479 58.5027C11.088 53.3999 9 47.1938 9 40.5C9 24.3967 21.0834 11.1159 36.6777 9.2295ZM44.3246 9.22973C59.9177 11.1173 72 24.3977 72 40.5C72 47.1938 69.912 53.3999 66.3521 58.5027L57.485 58.502C62.2661 53.9894 65.25 47.5931 65.25 40.5C65.25 29.6842 58.3124 20.489 48.6446 17.1214L44.3246 9.22973ZM40.5 0C62.8675 0 81 18.1325 81 40.5C81 46.9663 79.4846 53.0784 76.7896 58.5011L71.683 58.5016C74.7466 53.206 76.5 47.0579 76.5 40.5C76.5 20.6176 60.3824 4.5 40.5 4.5C20.6177 4.5 4.5 20.6176 4.5 40.5C4.5 47.0579 6.25342 53.206 9.31702 58.5016L4.21038 58.5011C1.51538 53.0784 0 46.9663 0 40.5C0 18.1325 18.1325 0 40.5 0ZM40.5 9L54 36C49.5 34.4999 46.5001 34.4999 45 36C43.4999 37.5001 42.0001 43.4999 40.5 54C38.9999 43.4999 37.5001 37.5001 36 36C34.4999 34.4999 31.5 34.4999 27 36L40.5 9Z" fill="white"/>
</svg>
