<svg width="80" height="77" viewBox="0 0 80 77" fill="none" xmlns="http://www.w3.org/2000/svg">
<path fill-rule="evenodd" clip-rule="evenodd" d="M16.3026 51.3333C22.2784 60.9212 29.0009 65.7151 36.4706 65.7151V77L34.2296 69.1005C27.5071 67.9721 19.6638 65.7151 12.9412 53.3017L16.3026 51.3333ZM63.6974 51.3333L67.0588 53.3017C60.3362 65.7151 52.4929 67.9721 45.7704 69.1005L43.5294 77V65.7151C50.9991 65.7151 57.7216 60.9212 63.6974 51.3333ZM40 7L49.4118 25.6667H44.7059L40 56L35.2941 25.6667H30.5882L40 7ZM30.5882 28L32.9412 39.6667H16.4706L24.2122 41.9062C14.2158 44.8716 6.14494 48.7916 0 53.6667C3.59447 48.6764 7.68306 44.1761 12.2659 40.166L2.35294 30.3333L4.38635 31.3416C9.32471 33.7902 13.1736 35.6986 15.9332 37.0669L15.9932 37.0967C20.4414 33.6511 25.3064 30.6189 30.5882 28ZM49.4118 28C61.9607 34.2223 72.1569 42.7777 80 53.6667C73.8551 48.7916 65.7842 44.8716 55.7878 41.9062L63.5294 39.6667H47.0588L49.4118 28ZM32.9412 0V14L25.8824 25.6667H18.8235L25.8824 14L32.9412 0ZM47.0588 0L54.1177 14L61.1765 25.6667H54.1177L47.0588 14V0Z" fill="#FF4656"/>
</svg>
