<svg width="54" height="81" viewBox="0 0 54 81" fill="none" xmlns="http://www.w3.org/2000/svg">
<path d="M22.4367 0C19.0248 10.5381 14.4566 30.4241 25.9683 34.4414C33.6431 37.1199 35.15 29.7897 30.4898 12.4514C38.1365 21.5751 41.4237 30.3755 40.3516 38.8528C41.773 39.5294 43.1156 40.3118 44.3621 41.1868C46.197 40.268 47.1141 38.5074 47.1141 35.9078C49.0996 38.9329 49.5865 41.9282 48.5744 44.8938C51.9795 48.6662 54 53.363 54 58.4539C54 70.9057 41.9117 81 27 81C12.0883 81 0 70.9057 0 58.4539C0 54.8651 1.00412 51.4724 2.79066 48.4604C1.03453 45.0624 1.50092 40.3887 4.19097 34.4414C4.19097 39.7962 5.40341 41.0846 6.83526 41.8422C7.23856 42.0554 7.71944 42.1788 8.27791 42.212C9.09019 41.5556 9.94964 40.946 10.8529 40.3823C9.43579 24.8506 13.2965 11.3891 22.4367 0ZM27 47.7743C19.9365 47.7743 14.2105 52.5557 14.2105 58.4539C14.2105 63.0468 17.6824 66.9625 22.5544 68.4707C23.0239 64.7766 24.8644 62.239 28.0772 60.8534C28.0772 61.2647 28.0682 61.6771 28.0593 62.0876C28.004 64.6315 27.9503 67.1047 30.0385 68.8293C35.638 67.6888 39.7895 63.4761 39.7895 58.4539C39.7895 52.5557 34.0635 47.7743 27 47.7743Z" fill="#FF4656"/>
<path d="M22.4367 0C19.0248 10.5381 14.4566 30.4241 25.9683 34.4414C33.6431 37.1199 35.15 29.7897 30.4898 12.4514C38.1365 21.5751 41.4237 30.3755 40.3516 38.8528C41.773 39.5294 43.1156 40.3118 44.3621 41.1868C46.197 40.268 47.1141 38.5074 47.1141 35.9078C49.0996 38.9329 49.5865 41.9282 48.5744 44.8938C51.9795 48.6662 54 53.363 54 58.4539C54 70.9057 41.9117 81 27 81C12.0883 81 0 70.9057 0 58.4539C0 54.8651 1.00412 51.4724 2.79066 48.4604C1.03453 45.0624 1.50092 40.3887 4.19097 34.4414C4.19097 39.7962 5.40341 41.0846 6.83526 41.8422C7.23856 42.0554 7.71944 42.1788 8.27791 42.212C9.09019 41.5556 9.94964 40.946 10.8529 40.3823C9.43579 24.8506 13.2965 11.3891 22.4367 0ZM27 47.7743C19.9365 47.7743 14.2105 52.5557 14.2105 58.4539C14.2105 63.0468 17.6824 66.9625 22.5544 68.4707C23.0239 64.7766 24.8644 62.239 28.0772 60.8534C28.0772 61.2647 28.0682 61.6771 28.0593 62.0876C28.004 64.6315 27.9503 67.1047 30.0385 68.8293C35.638 67.6888 39.7895 63.4761 39.7895 58.4539C39.7895 52.5557 34.0635 47.7743 27 47.7743Z" stroke="white"/>
</svg>
