<svg width="81" height="60" viewBox="0 0 81 60" fill="none" xmlns="http://www.w3.org/2000/svg">
<path d="M40.5008 29.4784L40.6703 29.0591C43.7418 21.89 52.857 23.8529 53.8819 29.4829C54.9266 35.2204 49.0772 41.5364 40.5023 46.6378L40.5025 46.6393H40.5C31.9253 41.5364 26.0762 35.2204 27.1206 29.4829C28.1649 23.7456 37.6107 21.8165 40.5008 29.4784ZM40.5008 29.4784L40.5 29.4804L40.5025 29.4829C40.5019 29.4814 40.5014 29.4799 40.5008 29.4784ZM16.9502 0.0353326C14.0321 17.0891 17.3781 41.7582 38.25 60C28.1939 59.5251 20.1681 58.1198 14.173 55.7842L19.665 52.2611C-1.49537 38.3476 -1.30772 20.8949 1.07993 16.3813C3.35264 21.2651 5.74747 24.2238 8.26444 25.2576C7.49104 14.3907 10.3862 5.98333 16.9502 0.0353326ZM64.0499 0C70.6138 5.948 73.5089 14.3553 72.7356 25.2222C75.2526 24.1887 77.6473 21.2298 79.92 16.3462C82.3077 20.8596 82.4954 38.3122 61.335 52.2258C61.335 52.2258 63.1656 53.4002 66.8271 55.7489C60.8319 58.0844 52.8062 59.4898 42.75 59.9647C63.6219 41.7229 66.9679 17.0538 64.0499 0ZM40.5 11.1047C42.9854 11.1047 45 13.0933 45 15.5464C45 17.9996 42.9854 19.9882 40.5 19.9882C38.0147 19.9882 36 17.9996 36 15.5464C36 13.0933 38.0147 11.1047 40.5 11.1047Z" fill="#FF4656"/>
<path d="M40.5008 29.4784L40.6703 29.0591C43.7418 21.89 52.857 23.8529 53.8819 29.4829C54.9266 35.2204 49.0772 41.5364 40.5023 46.6378L40.5025 46.6393H40.5C31.9253 41.5364 26.0762 35.2204 27.1206 29.4829C28.1649 23.7456 37.6107 21.8165 40.5008 29.4784ZM40.5008 29.4784L40.5 29.4804L40.5025 29.4829C40.5019 29.4814 40.5014 29.4799 40.5008 29.4784ZM16.9502 0.0353326C14.0321 17.0891 17.3781 41.7582 38.25 60C28.1939 59.5251 20.1681 58.1198 14.173 55.7842L19.665 52.2611C-1.49537 38.3476 -1.30772 20.8949 1.07993 16.3813C3.35264 21.2651 5.74747 24.2238 8.26444 25.2576C7.49104 14.3907 10.3862 5.98333 16.9502 0.0353326ZM64.0499 0C70.6138 5.948 73.5089 14.3553 72.7356 25.2222C75.2526 24.1887 77.6473 21.2298 79.92 16.3462C82.3077 20.8596 82.4954 38.3122 61.335 52.2258C61.335 52.2258 63.1656 53.4002 66.8271 55.7489C60.8319 58.0844 52.8062 59.4898 42.75 59.9647C63.6219 41.7229 66.9679 17.0538 64.0499 0ZM40.5 11.1047C42.9854 11.1047 45 13.0933 45 15.5464C45 17.9996 42.9854 19.9882 40.5 19.9882C38.0147 19.9882 36 17.9996 36 15.5464C36 13.0933 38.0147 11.1047 40.5 11.1047Z" stroke="white"/>
</svg>
