<svg width="82" height="62" viewBox="0 0 82 62" fill="none" xmlns="http://www.w3.org/2000/svg">
<path d="M54.3274 0C68.1623 2.19951 76.1341 19.1139 76.6114 24.8985C78.2094 23.0876 78.7239 20.0952 78.1547 15.9221C81.0872 18.4058 81.9371 20.0354 81.994 25.9525L81.9971 26.6278L82 62C77.1473 60.2109 71.0788 58.7443 64.1845 57.7198L64.1836 18.5288C64.1836 12.1592 59.1136 3.52631 54.3274 0ZM0.00171238 15.5508C8.43442 32.8159 14.3235 42.8569 17.6683 45.6734L17.6674 57.7339C10.8375 58.7539 4.8216 60.2082 0 61.9802L0.00171238 15.5508ZM42.4953 0.561473C40.6115 7.1243 39.5971 13.8632 39.4524 20.7782L39.434 22.5107L39.4348 56.0988C32.9259 56.1554 26.7086 56.57 20.984 57.2808L20.985 17.9736C20.985 11.56 18.4505 7.12157 15.3926 3.68305C19.121 4.87816 21.8716 7.14414 23.6452 10.4812C24.6901 12.4477 25.0764 15.6653 25.4585 18.8475C26.0489 23.7657 26.6292 28.5994 29.6153 28.5994C33.9775 28.5994 34.4741 22.2102 34.9206 16.4661C34.9775 15.7341 35.0336 15.0127 35.0967 14.3163C35.4693 10.2082 37.9356 5.6234 42.4953 0.561473ZM47.0383 10.5581C46.9631 20.2532 48.3602 25.1008 51.2293 25.1008C54.0985 25.1008 54.9132 20.6921 53.6741 11.8742C57.4581 16.3824 59.3502 20.2839 59.3502 23.5786L59.3509 57.0901C54.2946 56.5204 48.8797 56.1789 43.2388 56.1065V22.3354C43.2388 17.1259 44.5053 13.2 47.0383 10.5581ZM6.73594 4.56518C12.027 7.65204 15.054 11.1364 15.8171 15.0189L15.907 15.5508L10.1899 27.2788C10.8119 20.9922 9.66056 13.421 6.73594 4.56518Z" fill="white"/>
<path d="M54.3274 0C68.1623 2.19951 76.1341 19.1139 76.6114 24.8985C78.2094 23.0876 78.7239 20.0952 78.1547 15.9221C81.0872 18.4058 81.9371 20.0354 81.994 25.9525L81.9971 26.6278L82 62C77.1473 60.2109 71.0788 58.7443 64.1845 57.7198L64.1836 18.5288C64.1836 12.1592 59.1136 3.52631 54.3274 0ZM0.00171238 15.5508C8.43442 32.8159 14.3235 42.8569 17.6683 45.6734L17.6674 57.7339C10.8375 58.7539 4.8216 60.2082 0 61.9802L0.00171238 15.5508ZM42.4953 0.561473C40.6115 7.1243 39.5971 13.8632 39.4524 20.7782L39.434 22.5107L39.4348 56.0988C32.9259 56.1554 26.7086 56.57 20.984 57.2808L20.985 17.9736C20.985 11.56 18.4505 7.12157 15.3926 3.68305C19.121 4.87816 21.8716 7.14414 23.6452 10.4812C24.6901 12.4477 25.0764 15.6653 25.4585 18.8475C26.0489 23.7657 26.6292 28.5994 29.6153 28.5994C33.9775 28.5994 34.4741 22.2102 34.9206 16.4661C34.9775 15.7341 35.0336 15.0127 35.0967 14.3163C35.4693 10.2082 37.9356 5.6234 42.4953 0.561473ZM47.0383 10.5581C46.9631 20.2532 48.3602 25.1008 51.2293 25.1008C54.0985 25.1008 54.9132 20.6921 53.6741 11.8742C57.4581 16.3824 59.3502 20.2839 59.3502 23.5786L59.3509 57.0901C54.2946 56.5204 48.8797 56.1789 43.2388 56.1065V22.3354C43.2388 17.1259 44.5053 13.2 47.0383 10.5581ZM6.73594 4.56518C12.027 7.65204 15.054 11.1364 15.8171 15.0189L15.907 15.5508L10.1899 27.2788C10.8119 20.9922 9.66056 13.421 6.73594 4.56518Z" stroke="white"/>
</svg>
