<svg width="60" height="82" viewBox="0 0 60 82" fill="none" xmlns="http://www.w3.org/2000/svg">
<path d="M55.2739 0L44.0882 22.221C47.7322 25.6908 50.0038 30.5942 50.0038 36.0294C50.0038 37.2089 49.8967 38.3637 49.692 39.484L60 47.8299L47.7326 45.066C44.9712 50.1903 39.9343 53.9022 33.9787 54.8416L31.0006 82L28.5454 54.9166C26.771 54.6873 25.0735 54.2126 23.4876 53.5279L16.6106 58.1718L19.615 51.2789C15.1822 47.9495 12.2489 42.7242 12.0125 36.8035L0 32.1177L12.7315 30.7688C13.499 28.0864 14.839 25.6467 16.6102 23.5904L16.6106 18.8195L22.297 19.0951C23.8781 18.2773 25.5886 17.6753 27.3895 17.328H27.1999L30.1181 1.74894L32.9938 17.0881C35.2049 17.3191 37.3032 17.93 39.2227 18.8547L55.2739 0ZM31.0006 27.1418C26.1026 27.1418 22.1323 31.1209 22.1323 36.0294C22.1323 40.9378 26.1026 44.9169 31.0006 44.9169C35.8982 44.9169 39.8688 40.9378 39.8688 36.0294C39.8688 31.1209 35.8982 27.1418 31.0006 27.1418Z" fill="white"/>
<path d="M55.2739 0L44.0882 22.221C47.7322 25.6908 50.0038 30.5942 50.0038 36.0294C50.0038 37.2089 49.8967 38.3637 49.692 39.484L60 47.8299L47.7326 45.066C44.9712 50.1903 39.9343 53.9022 33.9787 54.8416L31.0006 82L28.5454 54.9166C26.771 54.6873 25.0735 54.2126 23.4876 53.5279L16.6106 58.1718L19.615 51.2789C15.1822 47.9495 12.2489 42.7242 12.0125 36.8035L0 32.1177L12.7315 30.7688C13.499 28.0864 14.839 25.6467 16.6102 23.5904L16.6106 18.8195L22.297 19.0951C23.8781 18.2773 25.5886 17.6753 27.3895 17.328H27.1999L30.1181 1.74894L32.9938 17.0881C35.2049 17.3191 37.3032 17.93 39.2227 18.8547L55.2739 0ZM31.0006 27.1418C26.1026 27.1418 22.1323 31.1209 22.1323 36.0294C22.1323 40.9378 26.1026 44.9169 31.0006 44.9169C35.8982 44.9169 39.8688 40.9378 39.8688 36.0294C39.8688 31.1209 35.8982 27.1418 31.0006 27.1418Z" stroke="white"/>
</svg>
